<?xml version="1.0" standalone="no"?>
<!DOCTYPE svg PUBLIC "-//W3C//DTD SVG 20010904//EN"
 "http://www.w3.org/TR/2001/REC-SVG-20010904/DTD/svg10.dtd">
<svg version="1.0" xmlns="http://www.w3.org/2000/svg"
 width="260.000000pt" height="260.000000pt" viewBox="0 0 260.000000 260.000000"
 preserveAspectRatio="xMidYMid meet">
<metadata>
Created by potrace 1.14, written by Peter Selinger 2001-2017
</metadata>
<g transform="translate(0.000000,260.000000) scale(0.100000,-0.100000)"
fill="#000000" stroke="none">
<path d="M1535 2523 c-9 -41 -15 -76 -13 -77 1 -2 43 -15 91 -30 292 -90 537
-290 685 -558 42 -75 105 -251 117 -323 18 -108 21 -148 19 -240 -6 -374 -196
-720 -510 -930 -76 -50 -224 -129 -224 -119 0 3 -13 -2 -30 -11 -72 -37 -231
-67 -380 -70 -131 -3 -280 12 -310 30 -5 3 -12 -7 -16 -22 -3 -15 -12 -52 -19
-81 l-13 -52 26 -6 c15 -3 33 -8 40 -10 80 -25 394 -24 517 0 561 114 980 542
1069 1091 19 116 14 342 -8 450 -55 256 -171 476 -345 653 -164 168 -328 271
-543 343 -141 47 -134 49 -153 -38z"/>
<path d="M715 2299 c-140 -75 -292 -206 -383 -331 -91 -124 -159 -280 -192
-438 -17 -85 -26 -276 -15 -322 6 -24 6 -24 82 -14 l76 11 2 110 c2 92 7 154
19 210 35 166 144 356 279 482 65 61 212 163 235 163 6 0 12 2 12 5 0 7 -69
145 -73 145 -1 0 -20 -10 -42 -21z"/>
<path d="M1070 2230 c-112 -25 -180 -50 -180 -66 0 -7 12 -40 27 -71 15 -32
28 -59 29 -61 1 -1 41 9 90 24 66 19 116 27 195 29 150 4 243 -16 393 -85 99
-45 229 -162 297 -267 23 -35 45 -62 49 -61 57 24 130 66 130 75 0 25 -102
162 -172 229 -126 123 -269 202 -440 245 -113 28 -314 33 -418 9z"/>
<path d="M1106 2040 c-48 -10 -103 -26 -121 -34 -18 -9 -36 -16 -40 -16 -19 0
-148 -85 -201 -134 -56 -51 -163 -191 -153 -200 2 -2 36 -20 75 -39 l71 -36
15 32 c26 53 109 138 185 188 130 85 334 117 472 75 30 -9 56 -16 57 -16 9 0
55 143 48 150 -18 18 -132 40 -224 44 -67 3 -121 -1 -184 -14z"/>
<path d="M2120 1939 c-30 -22 -59 -44 -64 -49 -4 -4 5 -28 22 -52 130 -189
186 -462 143 -692 -8 -46 -8 -62 1 -67 17 -11 138 -32 144 -26 26 25 39 341
19 447 -19 104 -53 208 -97 300 -19 39 -107 181 -111 180 -1 -1 -27 -19 -57
-41z"/>
<path d="M1120 1834 c-188 -49 -343 -202 -390 -384 -72 -275 84 -550 365 -646
69 -24 224 -28 300 -8 274 71 451 343 403 618 -21 115 -110 254 -213 332 -121
92 -313 128 -465 88z"/>
<path d="M459 1196 c-4 -3 -98 -15 -127 -16 -16 0 -9 -47 20 -140 86 -271 288
-485 562 -594 38 -15 70 -26 71 -24 4 4 35 109 41 136 3 13 0 22 -8 22 -7 0
-59 22 -114 49 -76 38 -120 68 -178 122 -132 123 -200 242 -240 422 -6 24 -16
33 -27 23z"/>
<path d="M1837 1184 c-4 -4 -7 -14 -7 -22 0 -23 -67 -157 -95 -190 l-25 -30
61 -53 62 -53 28 33 c52 63 126 217 128 267 1 18 -8 23 -60 33 -34 7 -66 14
-73 17 -7 3 -15 1 -19 -2z"/>
<path d="M2017 1113 c-34 -130 -118 -266 -223 -363 -30 -27 -54 -51 -54 -53 0
-2 22 -32 49 -65 l48 -61 58 52 c132 117 242 296 283 459 l20 76 -63 11 c-101
18 -98 19 -118 -56z"/>
<path d="M762 872 c-29 -27 -52 -53 -52 -59 0 -25 135 -123 234 -168 120 -55
226 -73 384 -66 l34 1 -7 58 c-12 107 -2 97 -93 98 -44 1 -104 7 -134 14 -75
17 -205 82 -258 129 -25 23 -47 41 -50 41 -3 0 -29 -22 -58 -48z"/>
<path d="M1725 474 c-51 -30 -154 -69 -230 -88 -172 -42 -368 -37 -524 14 -35
12 -65 20 -67 17 -2 -2 -17 -35 -33 -74 l-29 -71 67 -21 c301 -94 617 -65 893
81 l57 30 -30 47 c-16 25 -37 55 -46 67 l-18 21 -40 -23z"/>
</g>
</svg>
